<?xml version="1.0" encoding="UTF-8"?><svg id="Layer_1" xmlns="http://www.w3.org/2000/svg" viewBox="0 0 494.13 111"><defs><style>.cls-1{fill:#a73439;}</style></defs><path d="m154.13,54.24h-6.89l3.37-11.93,3.51,11.93Zm-10.22,11.33l1.25-4.39h10.86l1.29,4.39h10.86l-11.93-33.29h-11.1l-11.93,33.29h10.68Z"/><path d="m170.36,65.56v-7.91l15.95-17.62h-15.3v-7.77h28.71v7.72l-16.18,17.8h16.83v7.77h-30.01Z"/><path d="m202.53,32.28h10.91v19.93c0,3.28.65,6.1,5.13,6.1,3.93,0,5.09-2.5,5.09-6.1v-19.93h10.91v18.82c0,10.68-4.95,15.35-16,15.35-10.31,0-16.04-3.93-16.04-15.4v-18.77Z"/><path d="m254.68,41.94c-.18-1.15-.79-1.85-1.57-2.26-.79-.42-1.76-.6-2.82-.6-2.4,0-3.47.69-3.47,1.89,0,4.99,19.14,1.9,19.14,14.01,0,7.72-6.43,11.47-15.58,11.47s-14.52-5.13-14.75-11.14h10.45c.23,1.2.88,2.08,1.8,2.64.88.55,2.03.83,3.1.83,2.73,0,4.53-.88,4.53-2.45,0-5.04-19.14-1.57-19.14-14.29,0-7.07,6.1-10.63,14.42-10.63,9.25,0,13.45,4.72,14.24,10.54h-10.36Z"/><path d="m286.12,54.24h-6.89l3.37-11.93,3.51,11.93Zm-10.22,11.33l1.25-4.39h10.87l1.29,4.39h10.87l-11.93-33.29h-11.1l-11.93,33.29h10.68Z"/><path d="m323.16,47.44v-7.4h3.1c2.31,0,5.82.42,5.82,3.51,0,2.87-1.85,3.88-4.39,3.88h-4.53Zm0,18.12v-10.36h5.5c9.57,0,13.82-4.53,13.82-11.7s-4.62-11.23-14.19-11.23h-16.04v33.29h10.91Z"/><path d="m358.85,54.24h-6.89l3.38-11.93,3.51,11.93Zm-10.22,11.33l1.25-4.39h10.87l1.29,4.39h10.86l-11.93-33.29h-11.1l-11.93,33.29h10.68Z"/><path d="m392.78,44.99c-.32-3.47-2.5-5.45-5.92-5.45-3.84,0-6.15,3.28-6.15,9.71,0,4.67,1.02,9.06,6.57,9.06,3.51,0,5.18-2.45,5.59-5.64h10.49c-.97,8.6-7.12,13.78-15.9,13.78-11,0-17.66-6.75-17.66-17.57s7.31-17.48,16.6-17.48c10.17,0,15.86,5.04,16.74,13.59h-10.36Z"/><path d="m405.5,65.56v-33.29h10.91v33.29h-10.91Z"/><path d="m419.69,65.56v-33.29h25.89v7.77h-14.98v6.06h11.93v7.77h-11.93v11.7h-10.91Z"/><path d="m447.85,65.56v-33.29h10.91v33.29h-10.91Z"/><path d="m483.54,44.99c-.32-3.47-2.5-5.45-5.92-5.45-3.84,0-6.15,3.28-6.15,9.71,0,4.67,1.02,9.06,6.56,9.06,3.52,0,5.18-2.45,5.59-5.64h10.5c-.97,8.6-7.12,13.78-15.91,13.78-11,0-17.66-6.75-17.66-17.57s7.3-17.48,16.6-17.48c10.17,0,15.86,5.04,16.74,13.59h-10.35Z"/><path class="cls-1" d="m39.09,1.7l-14.25,38.41c6.97.14,15.6,1.6,24.71,3.14,2.85-13.22,7.03-23.59,8.62-43.26l-19.08,1.7Z"/><path class="cls-1" d="m47.54,51.99c-8.24-1.99-14.59-4.43-25.35-4.72L0,107.1l48-9.01c-2.53-23-2.21-34.78-.47-46.11Z"/><path class="cls-1" d="m60.34,53.64c-2.74,13.51-5.32,30.37-4.5,48.94l56.44,8.43-15.78-56.77c-16.58,1.48-28.22.52-36.17-.6Z"/><path class="cls-1" d="m83.94,9l-17.54-3.47s0,.03,0,.05c.79,13.65-1.72,25.9-4.5,39.12,10.17,1.55,21.21,2.74,32.55,2.15l-10.52-37.84Z"/><path d="m171.04,77.58h3.97v11.49c0,1.29.15,2.22.46,2.81.47,1.05,1.51,1.57,3.1,1.57s2.61-.52,3.08-1.57c.3-.59.46-1.53.46-2.81v-11.49h3.97v11.5c0,1.99-.31,3.54-.93,4.65-1.15,2.03-3.34,3.04-6.58,3.04s-5.44-1.02-6.6-3.04c-.62-1.11-.93-2.66-.93-4.65v-11.5Z"/><path d="m204.66,77.58h4.08l7.42,13.01v-13.01h3.62v18.72h-3.89l-7.61-13.28v13.28h-3.62v-18.72Z"/><path d="m241.88,96.3h-3.91v-18.72h3.91v18.72Z"/><path d="m271.32,77.58h4.06l-6.37,18.72h-3.7l-6.34-18.72h4.18l4.07,14.21,4.1-14.21Z"/><path d="m306.2,80.89h-9.72v3.97h8.91v3.22h-8.91v4.84h10.19v3.37h-14v-18.72h13.53v3.31Z"/><path d="m336.74,78.06c.69.3,1.28.73,1.76,1.31.4.47.71,1,.94,1.57.23.58.35,1.23.35,1.97,0,.89-.22,1.76-.67,2.62-.45.86-1.19,1.47-2.21,1.82.86.35,1.46.84,1.82,1.48.36.64.54,1.61.54,2.93v1.26c0,.86.04,1.44.11,1.74.11.48.35.84.74,1.07v.47h-4.31c-.12-.41-.2-.75-.25-1-.1-.53-.16-1.06-.17-1.61l-.03-1.74c-.02-1.2-.22-1.99-.62-2.39-.4-.4-1.15-.6-2.25-.6h-3.85v7.34h-3.81v-18.72h8.97c1.28.03,2.27.19,2.96.48Zm-8.11,2.74v5.06h4.24c.84,0,1.47-.1,1.89-.31.75-.36,1.12-1.07,1.12-2.12,0-1.14-.36-1.91-1.08-2.3-.4-.22-1.01-.33-1.82-.33h-4.35Z"/><path d="m361.19,90.52c.12.85.36,1.49.71,1.91.65.77,1.76,1.15,3.33,1.15.94,0,1.7-.1,2.29-.3,1.11-.39,1.67-1.11,1.67-2.17,0-.62-.27-1.09-.82-1.43-.55-.33-1.41-.62-2.6-.88l-2.02-.45c-1.99-.44-3.35-.92-4.1-1.44-1.26-.86-1.9-2.22-1.9-4.05,0-1.68.62-3.07,1.85-4.18,1.23-1.11,3.04-1.66,5.43-1.66,1.99,0,3.69.52,5.1,1.57,1.41,1.05,2.15,2.56,2.21,4.56h-3.75c-.07-1.13-.57-1.93-1.51-2.4-.62-.31-1.4-.47-2.32-.47-1.03,0-1.85.2-2.47.61-.61.41-.92.98-.92,1.7,0,.67.3,1.17.91,1.5.39.22,1.22.48,2.48.78l3.28.78c1.44.34,2.51.79,3.23,1.36,1.11.88,1.66,2.15,1.66,3.82s-.66,3.13-1.98,4.26c-1.32,1.13-3.19,1.69-5.6,1.69s-4.4-.56-5.81-1.67-2.12-2.64-2.12-4.58h3.75Z"/><path d="m394.13,96.3h-3.91v-18.72h3.91v18.72Z"/><path d="m426.23,77.58v3.31h-5.62v15.41h-3.91v-15.41h-5.62v-3.31h15.16Z"/><path d="m454.01,77.58h4.43l-6.25,11.7v7.02h-3.91v-7.01l-6.47-11.71h4.61l3.88,8.15,3.72-8.15Z"/></svg>